<?xml version="1.0" encoding="UTF-8"?>
<svg
  xmlns="http://www.w3.org/2000/svg"
  version="1.2"
  baseProfile="tiny"
  width="1024"
  height="1024"
  viewBox="0 0 1024 1024">

  <!-- Required solid background -->
  <rect width="1024" height="1024" fill="#FFFFFF"/>

  <!-- Outer ring -->
  <circle cx="512" cy="512" r="460" fill="none" stroke="#1F2937" stroke-width="28"/>

  <!-- Spiral arm 1 -->
  <path
    d="M512 170
       C680 240 760 360 740 470
       C720 590 600 680 512 750
       C450 700 470 620 520 560
       C590 480 620 390 580 310
       C550 250 510 210 512 170Z"
    fill="#2EC4C6"/>

  <!-- Spiral arm 2 -->
  <path
    d="M854 512
       C784 680 664 760 554 740
       C434 720 344 600 274 512
       C324 450 404 470 464 520
       C544 590 634 620 714 580
       C774 550 814 510 854 512Z"
    fill="#27B8B3"/>

  <!-- Spiral arm 3 -->
  <path
    d="M512 854
       C344 784 264 664 284 554
       C304 434 424 344 512 274
       C574 324 554 404 504 464
       C434 544 404 634 444 714
       C474 774 514 814 512 854Z"
    fill="#1FA3A0"/>

  <!-- Spiral arm 4 -->
  <path
    d="M170 512
       C240 344 360 264 470 284
       C590 304 680 424 750 512
       C700 574 620 554 560 504
       C480 434 390 404 310 444
       C250 474 210 514 170 512Z"
    fill="#1B8F90"/>

  <!-- Center core -->
  <circle cx="512" cy="512" r="88" fill="#155E63"/>

</svg>
